<svg xmlns="http://www.w3.org/2000/svg" height="800" width="1200" viewBox="-21.1899 -36.358 183.6458 218.148"><path d="M135.422 5.213c-10.249-9.836-31.845-5.277-55.632 9.668a72.686 72.686 0 00-7.44-.395c-35.896 0-64.996 26.347-64.996 58.847 0 .31.02.613.026.922 14.645-23.25 34.292-39.352 52.153-44.498a219.716 219.716 0 00-17.019 15.971C28.43 60.403 17.364 75.851 10.048 90.106c-11.269 21.957-13.614 41.076-4.196 50.115 10.101 9.695 31.23 5.4 54.611-9.041 3.856.645 7.824.998 11.886.998a72.03 72.03 0 008.584-.515c25.621-3.063 46.53-19.638 53.717-41.562H91.49c-2.662 7.937-10.145 13.664-18.978 13.664-11.062 0-20.029-8.968-20.029-20.03v-2.018h84.192c.432-2.739.668-5.537.668-8.384 0-25.715-18.223-47.562-43.608-55.57 17.82-10.003 33.014-12.757 40.34-5.728 4.474 4.295 5.417 11.68 3.363 20.93h2.371c2.83-12.1 1.623-21.983-4.387-27.752zM56.028 130.306c-18.409 10.637-34.193 13.714-41.705 6.505-6.531-6.268-5.541-19.114 1.314-34.738 8.553 13.807 23.066 24.177 40.391 28.233zm-3.521-67.221c.25-10.844 9.101-19.564 20.005-19.564 10.905 0 19.756 8.72 20.005 19.564h-40.01" fill="#37a5e2"/></svg>