<?xml version="1.0" encoding="iso-8859-1"?>
<!-- Generator: Adobe Illustrator 19.0.0, SVG Export Plug-In . SVG Version: 6.00 Build 0)  -->
<svg version="1.1" id="Layer_1" xmlns="http://www.w3.org/2000/svg" xmlns:xlink="http://www.w3.org/1999/xlink" x="0px" y="0px"
	 viewBox="0 0 512 512" style="enable-background:new 0 0 512 512;" xml:space="preserve">
<rect y="99.056" style="fill:#CCCCCC;" width="512" height="368.08"/>
<rect x="16" y="115.104" style="fill:#F2F2F2;" width="480" height="336"/>
<path d="M512,99.056v-25.44c0-15.816-12.936-28.752-28.752-28.752h-368.24H28.752C12.936,44.864,0,57.8,0,73.616v25.432h512V99.056z
	"/>
<g style="opacity:0.25;">
	<path style="fill:#FFFFFF;" d="M147.032,44.864h-32.024H28.752C12.936,44.864,0,57.8,0,73.616v25.432h115.888L147.032,44.864z"/>
</g>
<circle style="fill:#D80E47;" cx="40.536" cy="71.96" r="8.184"/>
<circle style="fill:#05C3D6;" cx="65.096" cy="71.96" r="8.184"/>
<g>
	<circle style="fill:#FFFFFF;" cx="89.648" cy="71.96" r="8.184"/>
	<path style="fill:#FFFFFF;" d="M428.256,86.336H170.88c-7.904,0-14.376-6.472-14.376-14.376l0,0
		c0-7.904,6.472-14.376,14.376-14.376h257.376c7.904,0,14.376,6.472,14.376,14.376l0,0C442.632,79.864,436.16,86.336,428.256,86.336
		z"/>
</g>
<path d="M180.576,65.4l1.968,7.56c0.432,1.672,0.832,3.2,1.112,4.752h0.096c0.336-1.512,0.832-3.112,1.32-4.72l2.432-7.592h2.28
	l2.304,7.456c0.552,1.784,0.984,3.344,1.32,4.856h0.096c0.24-1.512,0.648-3.08,1.144-4.832l2.12-7.488h2.68l-4.8,14.888h-2.464
	l-2.288-7.096c-0.52-1.656-0.952-3.144-1.32-4.888h-0.064c-0.368,1.784-0.832,3.328-1.352,4.92l-2.4,7.08h-2.464L177.8,65.408h2.776
	V65.4z"/>
<path d="M203.544,65.4l1.968,7.56c0.432,1.672,0.832,3.2,1.112,4.752h0.096c0.336-1.512,0.832-3.112,1.32-4.72l2.432-7.592h2.28
	l2.304,7.456c0.552,1.784,0.984,3.344,1.32,4.856h0.096c0.24-1.512,0.648-3.08,1.144-4.832l2.12-7.488h2.68l-4.8,14.888h-2.464
	l-2.288-7.096c-0.52-1.656-0.952-3.144-1.32-4.888h-0.064c-0.368,1.784-0.832,3.328-1.352,4.92l-2.4,7.08h-2.464l-4.496-14.888
	h2.776V65.4z"/>
<path d="M226.512,65.4l1.968,7.56c0.432,1.672,0.832,3.2,1.112,4.752h0.096c0.336-1.512,0.832-3.112,1.32-4.72l2.432-7.592h2.28
	l2.304,7.456c0.552,1.784,0.984,3.344,1.32,4.856h0.096c0.24-1.512,0.648-3.08,1.144-4.832l2.12-7.488h2.68l-4.8,14.888h-2.464
	l-2.288-7.096c-0.52-1.656-0.952-3.144-1.32-4.888h-0.064c-0.368,1.784-0.832,3.328-1.352,4.92l-2.4,7.08h-2.456l-4.496-14.888
	h2.768V65.4z"/>
<path d="M246.192,78.696c0-1.144,0.768-1.936,1.84-1.936s1.816,0.8,1.816,1.936c0,1.112-0.704,1.936-1.84,1.936
	C246.928,80.632,246.192,79.808,246.192,78.696z"/>
<g>
	<rect x="461.328" y="70.328" style="fill:#FFFFFF;" width="23" height="4"/>
	<polygon style="fill:#FFFFFF;" points="474.592,84.256 471.752,81.432 480.856,72.328 471.752,63.224 474.592,60.4 486.512,72.328 
			"/>
</g>
<polygon style="fill:#C9C9C9;" points="429.824,67.312 422.168,77.216 414.512,67.312 "/>
<path style="fill:#FFFFFF;" d="M492,119.104v328H20v-328L492,119.104 M496,115.104H16v336h480V115.104L496,115.104z"/>
<path style="fill:#D80E47;" d="M397.256,335.072H114.744c-8.04,0-14.616-6.576-14.616-14.616V233.64
	c0-8.04,6.576-14.616,14.616-14.616h282.504c8.04,0,14.616,6.576,14.616,14.616v86.808
	C411.872,328.496,405.296,335.072,397.256,335.072z"/>
<g>
	<path style="fill:#FFFFFF;" d="M129.936,255.208h9.968v35.568h17.456v8.336h-27.424V255.208z"/>
	<path style="fill:#FFFFFF;" d="M200.984,276.704c0,14.392-8.736,23.128-21.568,23.128c-13.032,0-20.648-9.832-20.648-22.344
		c0-13.168,8.4-23,21.368-23C193.624,254.488,200.984,264.592,200.984,276.704z M169.256,277.296c0,8.592,4.04,14.648,10.688,14.648
		c6.704,0,10.552-6.384,10.552-14.92c0-7.872-3.776-14.664-10.624-14.664C173.168,262.368,169.256,268.76,169.256,277.296z"/>
	<path style="fill:#FFFFFF;" d="M244.232,297.096c-3.056,1.04-8.856,2.464-14.664,2.464c-8,0-13.808-2.016-17.848-5.928
		c-4.04-3.776-6.256-9.512-6.184-15.96c0.056-14.592,10.68-22.928,25.072-22.928c5.672,0,10.04,1.112,12.184,2.152l-2.088,7.944
		c-2.408-1.04-5.4-1.888-10.224-1.888c-8.272,0-14.52,4.688-14.52,14.2c0,9.056,5.664,14.392,13.808,14.392
		c2.28,0,4.112-0.256,4.888-0.648v-9.184h-6.776v-7.752h16.352L244.232,297.096L244.232,297.096z"/>
	<path style="fill:#FFFFFF;" d="M262.008,255.208v43.904h-9.968v-43.904H262.008z"/>
	<path style="fill:#FFFFFF;" d="M270.624,299.112v-43.904h11.592l9.128,16.088c2.608,4.624,5.208,10.096,7.168,15.048h0.2
		c-0.664-5.792-0.856-11.72-0.856-18.296v-12.832h9.128v43.904H296.56l-9.384-16.944c-2.608-4.68-5.464-10.352-7.624-15.496
		l-0.2,0.056c0.264,5.8,0.392,11.984,0.392,19.16v13.224h-9.12V299.112z"/>
	<circle style="fill:#FFFFFF;" cx="359.12" cy="263.712" r="13.384"/>
	<path style="fill:#FFFFFF;" d="M336.168,303.768c0-12.672,10.272-22.944,22.944-22.944s22.944,10.272,22.944,22.944H336.168z"/>
</g>
<g>
</g>
<g>
</g>
<g>
</g>
<g>
</g>
<g>
</g>
<g>
</g>
<g>
</g>
<g>
</g>
<g>
</g>
<g>
</g>
<g>
</g>
<g>
</g>
<g>
</g>
<g>
</g>
<g>
</g>
</svg>
