<?xml version="1.0" encoding="iso-8859-1"?>
<!-- Generator: Adobe Illustrator 19.0.0, SVG Export Plug-In . SVG Version: 6.00 Build 0)  -->
<svg version="1.1" id="Layer_1" xmlns="http://www.w3.org/2000/svg" xmlns:xlink="http://www.w3.org/1999/xlink" x="0px" y="0px"
	 viewBox="0 0 512.001 512.001" style="enable-background:new 0 0 512.001 512.001;" xml:space="preserve">
<path style="fill:#CAD1D8;" d="M24,16h464c13.254,0,24,10.745,24,24v432c0,13.254-10.745,24-24,24H24C10.745,496,0,485.255,0,472V40
	C0,26.745,10.745,16,24,16z"/>
<g>
	<circle style="fill:#9BA7AF;" cx="24.002" cy="47.995" r="7.998"/>
	<circle style="fill:#9BA7AF;" cx="56.002" cy="47.995" r="7.998"/>
	<circle style="fill:#9BA7AF;" cx="88.002" cy="47.995" r="7.998"/>
</g>
<path style="fill:#FFFFFF;" d="M24,80h464c4.418,0,8,3.582,8,8v384c0,4.418-3.582,8-8,8H24c-4.418,0-8-3.582-8-8V88
	C16,83.582,19.582,80,24,80z"/>
<path style="fill:#E2E5E7;" d="M120,40h368c4.418,0,8,3.582,8,8l0,0c0,4.418-3.582,8-8,8H120c-4.418,0-8-3.582-8-8l0,0
	C112,43.582,115.582,40,120,40z"/>
<g>
	<path style="fill:#CAD1D8;" d="M288,272h152c4.418,0,8,3.582,8,8l0,0c0,4.418-3.582,8-8,8H288c-4.418,0-8-3.582-8-8l0,0
		C280,275.582,283.582,272,288,272z"/>
	<path style="fill:#CAD1D8;" d="M288,208h176c4.418,0,8,3.582,8,8.001l0,0c0,4.418-3.582,8-8,8H288c-4.418,0-8-3.582-8-8l0,0
		C280,211.582,283.582,208,288,208z"/>
	<path style="fill:#CAD1D8;" d="M288,240h120c4.418,0,8,3.582,8,8.001l0,0c0,4.418-3.582,8.001-8,8.001H288
		c-4.418,0-8-3.582-8-8.001l0,0C280,243.582,283.582,240,288,240z"/>
	<path style="fill:#CAD1D8;" d="M288,336h80c4.418,0,8,3.582,8,8l0,0c0,4.418-3.582,8-8,8h-80c-4.418,0-8-3.582-8-8l0,0
		C280,339.582,283.582,336,288,336z"/>
	<path style="fill:#CAD1D8;" d="M288,176h120c4.418,0,8,3.582,8,8.001l0,0c0,4.418-3.582,8-8,8H288c-4.418,0-8-3.582-8-8l0,0
		C280,179.582,283.582,176,288,176z"/>
	<path style="fill:#CAD1D8;" d="M288,304h144c4.418,0,8,3.582,8,8l0,0c0,4.418-3.582,8-8,8H288c-4.418,0-8-3.582-8-8l0,0
		C280,307.582,283.582,304,288,304z"/>
</g>
<path style="fill:#595A66;" d="M416,136.001L416,136.001c0,4.418-3.582,8-8,8H288c-4.418,0-8-3.582-8-8l0,0
	c0-4.418,3.582-8.001,8-8.001h120C412.418,128,416,131.582,416,136.001z"/>
<path style="fill:#BD6428;" d="M56,132h176c2.209,0,4,1.791,4,4v144c0,2.209-1.791,4-4,4H56c-2.209,0-4-1.791-4-4V136.001
	C52,133.791,53.791,132,56,132z"/>
<path style="fill:#A35723;" d="M232.001,136.001v144H56v-144H232.001 M232.001,128H56c-4.418,0-8,3.582-8,8.001v144
	c0,4.418,3.582,8,8,8h176c4.418,0,8-3.582,8-8v-144C240,131.582,236.418,128,232.001,128L232.001,128z"/>
<path style="fill:#BD6428;" d="M56,308h32c2.209,0,4,1.791,4,4v32c0,2.209-1.791,4-4,4H56c-2.209,0-4-1.791-4-4v-32
	C52,309.791,53.791,308,56,308z"/>
<path style="fill:#A35723;" d="M88,312v32H56v-32H88 M88,304H56c-4.418,0-8,3.582-8,8v32c0,4.418,3.582,8,8,8h32
	c4.418,0,8.001-3.582,8.001-8v-32C96,307.582,92.418,304,88,304L88,304z"/>
<path style="fill:#BD6428;" d="M128,308h32c2.209,0,4,1.791,4,4v32c0,2.209-1.791,4-4,4h-32c-2.209,0-4-1.791-4-4v-32
	C124,309.791,125.791,308,128,308z"/>
<path style="fill:#A35723;" d="M160,312v32h-32v-32H160 M160,304h-32c-4.418,0-8.001,3.582-8.001,8v32c0,4.418,3.582,8,8.001,8h32
	c4.418,0,8.001-3.582,8.001-8v-32C168.001,307.582,164.418,304,160,304L160,304z"/>
<path style="fill:#BD6428;" d="M200.001,308h32c2.209,0,4,1.791,4,4v32c0,2.209-1.791,4-4,4h-32c-2.209,0-4-1.791-4-4v-32
	C196,309.791,197.791,308,200.001,308z"/>
<g>
	<path style="fill:#A35723;" d="M232.001,312v32h-32v-32H232.001 M232.001,304h-32c-4.418,0-8.001,3.582-8.001,8v32
		c0,4.418,3.582,8,8.001,8h32c4.418,0,8-3.582,8-8v-32C240,307.582,236.418,304,232.001,304L232.001,304z"/>
	<circle style="fill:#A35723;" cx="128" cy="248.002" r="7.998"/>
	<circle style="fill:#A35723;" cx="160" cy="248.002" r="7.998"/>
	<path style="fill:#A35723;" d="M184.001,176h-16c-4.418,0-8.001,3.582-8.001,8.001v8h-40.001c-4.418,0-8,3.582-8,8.001v24.001
		c0,4.418,3.582,8.001,8,8.001h48c4.418,0,8.001-3.582,8.001-8.001V192h8.001c4.418,0,8-3.582,8-8.001S188.418,176,184.001,176z"/>
</g>
<g>
	<circle style="fill:#FFFFFF;" cx="128" cy="239.995" r="7.998"/>
	<circle style="fill:#FFFFFF;" cx="160" cy="239.995" r="7.998"/>
	<path style="fill:#FFFFFF;" d="M184.001,168.001h-16c-4.418,0-8.001,3.582-8.001,8v8.001h-40.001c-4.418,0-8,3.582-8,8.001v24.001
		c0,4.418,3.582,8,8,8h48c4.418,0,8.001-3.582,8.001-8v-32h8.001c4.418,0,8-3.582,8-8.001S188.418,168.001,184.001,168.001z"/>
</g>
<g>
	<path style="fill:#DDDFE1;" d="M184.001,176c-4.418,0-8.001,3.582-8.001,8.001h8.001c4.418,0,8-3.582,8-8.001H184.001z"/>
	<path style="fill:#DDDFE1;" d="M168.001,200.001v16H112c0,4.418,3.582,8,8,8h48c4.418,0,8-3.582,8-8V192
		C171.582,192,168.001,195.582,168.001,200.001z"/>
</g>
<path style="fill:#E2E5E7;" d="M304,400h112c13.254,0,24,10.745,24,24l0,0c0,13.254-10.745,24-24,24H304c-13.254,0-24-10.745-24-24
	l0,0C280,410.745,290.746,400,304,400z"/>
<path style="fill:#3CB54A;" d="M304,392h112c13.254,0,24,10.745,24,24l0,0c0,13.254-10.745,24-24,24H304c-13.254,0-24-10.745-24-24
	l0,0C280,402.746,290.746,392,304,392z"/>
<g>
	<circle style="fill:#0E9347;" cx="359.998" cy="416" r="7.998"/>
	<circle style="fill:#0E9347;" cx="391.998" cy="416" r="7.998"/>
	<circle style="fill:#0E9347;" cx="327.998" cy="416" r="7.998"/>
</g>
<g>
	<circle style="fill:#FFFFFF;" cx="143.995" cy="327.998" r="7.998"/>
	<circle style="fill:#FFFFFF;" cx="71.998" cy="327.998" r="7.998"/>
	<circle style="fill:#FFFFFF;" cx="216.002" cy="327.998" r="7.998"/>
</g>
<g>
</g>
<g>
</g>
<g>
</g>
<g>
</g>
<g>
</g>
<g>
</g>
<g>
</g>
<g>
</g>
<g>
</g>
<g>
</g>
<g>
</g>
<g>
</g>
<g>
</g>
<g>
</g>
<g>
</g>
</svg>
