<svg xmlns="http://www.w3.org/2000/svg" enable-background="new 0 0 1080 1080" viewBox="0 0 1080 1080"><path fill="#F7F7F7" d="M714.698 830.226c-109.35 89.563-139.625 25.908-259.431-56.666-50.121-34.545-163.139-46.296-246.993-94.2C34.198 579.915 99.58 395.603 254.677 268.571s383.807-104.28 510.838 50.817S869.795 703.195 714.698 830.226zM1041.302 1031H57.548c-5.334 0-9.697-4.364-9.697-9.698v-27.104c0-5.334 4.364-9.698 9.697-9.698h983.754c5.334 0 9.698 4.364 9.698 9.698v27.104C1051 1026.636 1046.636 1031 1041.302 1031z"/><path fill="#1A87D8" d="M896.19,909.349c6.533-16.61,13.121-35.069,7-51.835c-1.487-4.073-3.727-8.385-2.385-12.508
				c1.813-5.567,9.138-7.555,11.617-12.86c2.726-5.832-1.546-12.706-0.437-19.047c1.128-6.447,7.436-10.626,13.554-12.952
				c6.118-2.326,12.844-3.73,17.776-8.032c9.486-8.276,8.345-23.092,6.257-35.507c-2.088-12.415-3.648-27.066,5.426-35.792
				c-16.693,3.191-33.792,6.535-48.309,15.373s-26.135,24.478-25.281,41.452c0.428,8.515,3.798,17.595-0.1,25.178
				c-4.209,8.187-15.537,11.369-18.395,20.12c-3.284,10.056,6.519,19.162,10.39,29.007c3.635,9.247,1.914,19.618,2.729,29.52
				s6.009,21.103,15.833,22.583L896.19,909.349z"/><path fill="none" stroke="#FFF" stroke-linecap="round" stroke-miterlimit="10" stroke-width=".75" d="M889.426,887.514
			c-0.161-48.31,9.152-149.414,64.969-166.29"/><path fill="#2A94F4" d="M857.278,905.3c-9.935-18.549-20.189-39.256-15.33-59.729c1.18-4.974,3.21-10.331,1.071-14.973
				c-2.889-6.269-11.74-7.589-15.372-13.458c-3.994-6.454,0.061-15.089-2.11-22.362c-2.207-7.394-10.169-11.418-17.652-13.3
				s-15.552-2.6-21.919-6.959c-12.246-8.384-12.949-25.889-12.213-40.713c0.737-14.823,0.546-32.193-11.279-41.162
				c19.985,1.439,40.466,3.001,58.679,11.352c18.213,8.351,33.97,25.064,35.306,45.056c0.67,10.029-2.026,21.124,3.583,29.466
				c6.055,9.007,19.756,11.173,24.307,21.026c5.229,11.322-4.996,23.333-8.173,35.393c-2.984,11.327,0.459,23.233,0.867,34.94
				c0.408,11.706-4.131,25.536-15.431,28.621L857.278,905.3z"/><path fill="none" stroke="#FFF" stroke-linecap="round" stroke-miterlimit="10" stroke-width=".75" d="M862.194,878.803
			c-6.46-56.587-31.279-173.686-98.957-185.763"/><path fill="#CCE9FF" d="M920.03,1014.113h-87.247c-6.061,0-11.021-4.959-11.021-11.021l-7.347-125.819
		c0-6.061,4.959-11.021,11.021-11.021h101.941c6.061,0,11.021,4.959,11.021,11.021l-7.347,125.819
		C931.05,1009.154,926.091,1014.113,920.03,1014.113z"/><path fill="#1A87D8" d="M151.557,942.706c-4.453-11.321-8.943-23.903-4.771-35.331c1.013-2.776,2.541-5.715,1.625-8.525
				c-1.236-3.795-6.229-5.15-7.918-8.765c-1.858-3.975,1.054-8.66,0.298-12.983c-0.769-4.394-5.068-7.242-9.238-8.828
				c-4.17-1.586-8.755-2.542-12.116-5.475c-6.466-5.641-5.688-15.74-4.265-24.201c1.423-8.462,2.486-18.448-3.698-24.396
				c11.378,2.175,23.033,4.454,32.927,10.479c9.894,6.024,17.814,16.684,17.231,28.254c-0.292,5.804-2.589,11.993,0.068,17.161
				c2.869,5.58,10.59,7.749,12.538,13.714c2.238,6.854-4.444,13.061-7.082,19.771c-2.478,6.302-1.304,13.372-1.86,20.121
				c-0.556,6.749-4.095,14.384-10.792,15.392L151.557,942.706z"/><path fill="none" stroke="#FFF" stroke-linecap="round" stroke-miterlimit="10" stroke-width=".75" d="M156.168,927.823
			c0.11-32.928-6.238-101.841-44.283-113.343"/><path fill="#2A94F4" d="M178.08,939.946c6.772-12.643,13.761-26.757,10.449-40.712c-0.805-3.39-2.188-7.042-0.73-10.206
				c1.969-4.273,8.002-5.172,10.478-9.173c2.722-4.399-0.042-10.285,1.438-15.242c1.505-5.04,6.931-7.782,12.032-9.065
				c5.101-1.283,10.6-1.772,14.94-4.743c8.347-5.715,8.826-17.646,8.324-27.75c-0.502-10.104-0.372-21.943,7.688-28.056
				c-13.621,0.981-27.582,2.045-39.996,7.738c-12.414,5.692-23.154,17.084-24.064,30.71c-0.457,6.836,1.381,14.398-2.442,20.084
				c-4.127,6.139-13.466,7.616-16.568,14.331c-3.564,7.717,3.405,15.904,5.571,24.124c2.034,7.72-0.313,15.836-0.591,23.815
				c-0.278,7.979,2.816,17.405,10.518,19.508L178.08,939.946z"/><path fill="none" stroke="#FFF" stroke-linecap="round" stroke-miterlimit="10" stroke-width=".75" d="M174.729,921.886
			c4.403-38.57,21.32-118.384,67.449-126.616"/><path fill="#CCE9FF" d="M135.308,1014.113h59.467c4.131,0,7.512-3.38,7.512-7.512l5.008-85.758c0-4.131-3.38-7.512-7.512-7.512
		h-69.483c-4.131,0-7.512,3.38-7.512,7.512l5.008,85.758C127.797,1010.733,131.177,1014.113,135.308,1014.113z"/><path fill="none" stroke="#CCE9FF" stroke-miterlimit="10" stroke-width="2" d="M918.37,225.88v422.05
	c0,9.31-7.61,16.93-16.92,16.93H230.73c-9.31,0-16.93-7.62-16.93-16.93V225.88c0-9.31,7.62-16.92,16.93-16.92h670.72
	C910.76,208.96,918.37,216.57,918.37,225.88z"/><path fill="#F3FAFF" d="M940.37,203.88v422.05c0,5.08-2.27,9.66-5.84,12.76c-0.53,0.48-1.1,0.91-1.69,1.31
	c-2.69,1.81-5.93,2.86-9.39,2.86H252.73c-3.46,0-6.7-1.05-9.39-2.86c-4.54-3.05-7.54-8.23-7.54-14.07V203.88
	c0-9.31,7.62-16.92,16.93-16.92h670.72C932.76,186.96,940.37,194.57,940.37,203.88z"/><circle cx="575.715" cy="420.715" r="131.715" fill="#CCE9FF"/><circle cx="587.285" cy="432.285" r="131.715" fill="none" stroke="#CCE9FF" stroke-miterlimit="10"/><path fill="#FFE3CA" d="M495.491,495.214l2.303-5.999c0,0,10.278-7.373,11.228-10.389c-0.81-0.587-6.172,1.703-7.569,1.927
	c1.264-3.148,4.362-9.983,6.525-12.883c0.629-0.843,0.089-2.055-0.962-2.091c-2.853-0.097-7.738,1.2-11.176,2.266
	c-5.502,5.893-6.145,15.305-4.302,17.874c-1.538,4.08-4.032,8.603-4.032,8.603L495.491,495.214z"/><polygon fill="#FFBE55" points="489.5 488.5 497.5 494.5 479 539 470.472 523.954"/><path fill="#FCAD00" d="M554.031,488.243l-12.444,10.491c0.941-0.794,1.777-1.679,2.489-2.647l12.444-10.491
				C555.808,486.564,554.972,487.449,554.031,488.243z"/><polygon fill="#FFEBC2" points="579.804 447.464 592.248 436.974 556.52 485.596 544.076 496.086"/><g opacity=".55"><path fill="#FFBE55" d="M528.83 325.933c-.723-.076-1.451-.124-2.181-.142l-1.52-.034c-6.094-.145-11.11 1.664-14.565 4.577l-12.444 10.491c3.455-2.913 8.471-4.722 14.565-4.577l1.52.034c.73.018 1.457.066 2.181.142 6.502.683 12.648 3.664 16.643 8.169l41.976 47.235 12.444-10.491-41.976-47.235C541.479 329.596 535.333 326.616 528.83 325.933zM673.091 469.341l-55.972-59.889 41.274-53.727c8.178-10.645-2.174-25.438-18.128-27.114-.757-.08-1.527-.13-2.329-.151-5.729-.138-10.968 1.569-14.622 4.649l-12.444 10.491c3.654-3.08 8.893-4.786 14.622-4.649.803.021 1.573.071 2.329.151 15.953 1.677 26.306 16.47 18.128 27.114l-41.274 53.727 55.972 59.89c7.013 7.507 5.903 16.5-.403 21.816l12.444-10.491C678.993 485.841 680.104 476.848 673.091 469.341z"/></g><path fill="#FFBE55" d="M627.82 339.1c15.953 1.677 26.306 16.47 18.128 27.114l-41.274 53.727 55.972 59.889c10.857 11.621 2.245 26.802-14.969 26.393l-1.578-.04c-.733-.018-1.465-.065-2.191-.142-6.442-.677-12.536-3.614-16.54-8.048l-45.564-50.53-35.728 48.622c-3.472 4.723-9.896 7.462-17.105 7.29-.78-.019-1.551-.069-2.307-.148-15.961-1.678-26.313-16.477-18.12-27.128l43.87-56.98-52.703-56.495c-10.842-11.619-2.231-26.786 14.976-26.377l1.52.034c.73.018 1.457.066 2.181.142 6.502.683 12.648 3.664 16.643 8.169l41.976 47.235 33.357-45.561c3.472-4.738 9.911-7.49 17.127-7.317C626.294 338.971 627.063 339.021 627.82 339.1zM420.5 715.5c-8 19-69 187-50 259 21 0 23 0 23 0s63-199 63-203c0 22 8 184 14 203 12 2 29 0 29 0s9-223 3-260C470.5 710.5 420.5 715.5 420.5 715.5z"/><path fill="#FFBE55" d="M500.932,717.376l-81.98,4.429c-2.838,0.153-4.198-3.429-1.974-5.198h0c1.196-0.951,1.902-2.372,2.007-3.897
	c0.133-1.93,0.777-3.428,2.896-3.543l78.378-4.234c2.616-0.141,2.482,1.665,2.543,4.145c0.013,0.541,0.241,1.058,0.633,1.431l0,0
	c1.427,1.359,1.811,3.597,0.68,5.211C503.443,716.681,502.386,717.298,500.932,717.376z"/><path fill="#070707" d="M500.932,717.376l-81.98,4.429c-2.838,0.153-4.198-3.429-1.974-5.198h0
	c1.196-0.951,1.902-2.372,2.007-3.897c0.133-1.93,0.777-3.428,2.896-3.543l78.378-4.234c2.616-0.141,2.482,1.665,2.543,4.145
	c0.013,0.541,0.241,1.058,0.633,1.431l0,0c1.427,1.359,1.811,3.597,0.68,5.211C503.443,716.681,502.386,717.298,500.932,717.376z" opacity=".09"/><path fill="#FFBE55" d="M487.319,572.354L539.5,494.5l10,6L490,610c0,0,6.959,31.94,8.5,43.5c1.101,8.256,5.837,15.603,9.873,22.208
	c4.824,7.895,4.635,17.882-0.509,25.572c-3.265,4.882-6.364,9.22-6.364,9.22c-11,1-72,9-84,0s-3-19-3-19
	s14.295-23.608,13.147-41.304C426.5,632.5,423.5,584.5,423.5,584.5L487.319,572.354z"/><path fill="#FFE3CA" d="M541.227,495.536l3.273-5.036c0,0-4-12-3-15c1,0,4,5,5,6c0.823-3.291,2.323-10.644,2.271-14.261
	c-0.015-1.052,1.133-1.717,2.006-1.129c2.367,1.595,5.563,5.511,7.723,8.39c1,8-4,16-7,17c-3,4-3.4,8.16-3.4,8.16L541.227,495.536z"/><polygon fill="#FFE3CA" points="373.46 974.5 373.5 983.5 387.5 983.5 387.5 974.5"/><polygon fill="#FFE3CA" points="476.46 974.5 476.5 983.5 490.5 983.5 490.5 974.5"/><path fill="#0E538C" d="M496.5 1004.5c0 .81-1.81 1.54-4.51 2.09-7.35 1.48-21.3 1.56-23.49-2.09-1.37-2.28.17-7.44 2.25-12.36 2.47-5.86 5.71-11.4 5.71-11.4h14.04C493.5 987.5 496.5 1001.5 496.5 1004.5zM395.5 1004.5c0 .93-2.7 1.74-6.51 2.27-8.46 1.17-22.42.94-24.49-2.51-1.29-2.15 0-6.83 1.89-11.47 2.5-6.17 6.07-12.29 6.07-12.29h14.04C389.5 987.26 395.5 1001.5 395.5 1004.5z"/><path fill="#1469A3" d="M388.99 1006.77c-8.46 1.17-22.42.94-24.49-2.51-1.29-2.15 0-6.83 1.89-11.47 2.13-1.15 4.55-1.79 7.11-1.79C381.98 991 388.88 998.04 388.99 1006.77zM491.99 1006.59c-7.35 1.48-21.3 1.56-23.49-2.09-1.37-2.28.17-7.44 2.25-12.36 1.78-.74 3.72-1.14 5.75-1.14C484.93 991 491.78 997.94 491.99 1006.59z"/><path fill="#FFE3CA" d="M482,539.5c0,11.375-1.355,19.385-10.5,19.385s-21-8.414-21-19.789s7.413-20.596,16.558-20.596
	S482,528.125,482,539.5z"/><path fill="#0E538C" d="M468.5,526.5c11-2,27-20,12-27s-43-9-55,10s3,34,5,44S424,571,412,581s-29.5,49.5,0.5,63.5s78,3,81-42
	s-37-51-37-55S468.5,526.5,468.5,526.5z"/><ellipse cx="460.572" cy="534.78" fill="#FFE3CA" rx="5.296" ry="7.061" transform="rotate(-15.961 460.528 534.735)"/><path fill="#FFBE55" d="M940.37 203.88V225H235.8v-21.12c0-9.31 7.62-16.92 16.93-16.92h670.72C932.76 186.96 940.37 194.57 940.37 203.88zM483.538 275.562H269.462c-4.104 0-7.462-3.358-7.462-7.462v-4.638c0-4.104 3.358-7.462 7.462-7.462h214.077c4.104 0 7.462 3.358 7.462 7.462v4.638C491 272.204 487.642 275.562 483.538 275.562zM423.609 307H268.391c-3.515 0-6.391-2.876-6.391-6.391v-6.779c0-3.515 2.876-6.391 6.391-6.391h155.218c3.515 0 6.391 2.876 6.391 6.391v6.779C430 304.124 427.124 307 423.609 307zM440.293 338H268.707c-3.689 0-6.707-3.018-6.707-6.707v-6.148c0-3.689 3.018-6.707 6.707-6.707h171.587c3.689 0 6.707 3.018 6.707 6.707v6.148C447 334.982 443.982 338 440.293 338zM914 625H804c-6.6 0-12-5.4-12-12v-95c0-6.6 5.4-12 12-12h110c6.6 0 12 5.4 12 12v95C926 619.6 920.6 625 914 625z"/><path fill="#FFF" d="M483.538 275.562H269.462c-4.104 0-7.462-3.358-7.462-7.462v-4.638c0-4.104 3.358-7.462 7.462-7.462h214.077c4.104 0 7.462 3.358 7.462 7.462v4.638C491 272.204 487.642 275.562 483.538 275.562zM423.609 307H268.391c-3.515 0-6.391-2.876-6.391-6.391v-6.779c0-3.515 2.876-6.391 6.391-6.391h155.218c3.515 0 6.391 2.876 6.391 6.391v6.779C430 304.124 427.124 307 423.609 307zM440.293 338H268.707c-3.689 0-6.707-3.018-6.707-6.707v-6.148c0-3.689 3.018-6.707 6.707-6.707h171.587c3.689 0 6.707 3.018 6.707 6.707v6.148C447 334.982 443.982 338 440.293 338zM914 625H804c-6.6 0-12-5.4-12-12v-95c0-6.6 5.4-12 12-12h110c6.6 0 12 5.4 12 12v95C926 619.6 920.6 625 914 625z" opacity=".2"/></svg>