<?xml version="1.0" encoding="iso-8859-1"?>
<!-- Generator: Adobe Illustrator 19.0.0, SVG Export Plug-In . SVG Version: 6.00 Build 0)  -->
<svg version="1.1" id="Layer_1" xmlns="http://www.w3.org/2000/svg" xmlns:xlink="http://www.w3.org/1999/xlink" x="0px" y="0px"
	 viewBox="0 0 512 512" style="enable-background:new 0 0 512 512;" xml:space="preserve">
<rect x="4" y="109.852" style="fill:#FFFFFF;" width="504" height="358.496"/>
<path style="fill:#E5E5E5;" d="M504,113.86v350.496H8V113.86H504 M512,105.86H0v366.496h512V105.86L512,105.86z"/>
<path d="M0,119.372V55.644c0-8.8,7.2-16,16-16h479.96c8.8,0,16,7.2,16,16v63.728H0z"/>
<polygon style="fill:#FFFFFF;" points="471.624,101.508 171.536,101.508 200.24,57.508 471.624,57.508 "/>
<circle style="fill:#E04F5F;" cx="53.904" cy="78.908" r="13.608"/>
<circle style="fill:#F2B851;" cx="89.976" cy="78.908" r="13.608"/>
<g>
	<circle style="fill:#25B6D2;" cx="126.056" cy="78.908" r="13.608"/>
	<path style="fill:#25B6D2;" d="M215.616,71.244l1.912,8.312c0.416,1.952,0.832,3.944,1.168,5.936h0.08
		c0.376-1.992,0.976-4.024,1.504-5.896l2.368-8.352h3.76l2.296,8.128c0.56,2.144,1.048,4.136,1.464,6.128h0.08
		c0.296-1.992,0.712-3.984,1.2-6.128l2.032-8.128h4.544l-5.752,18.312h-4.288l-2.176-7.448c-0.56-1.912-0.976-3.648-1.392-5.864
		h-0.08c-0.376,2.256-0.856,4.064-1.392,5.864l-2.328,7.448h-4.328l-5.408-18.312H215.616z"/>
	<path style="fill:#25B6D2;" d="M244.384,71.244l1.912,8.312c0.416,1.952,0.832,3.944,1.168,5.936h0.08
		c0.376-1.992,0.976-4.024,1.504-5.896l2.368-8.352h3.76l2.296,8.128c0.56,2.144,1.048,4.136,1.464,6.128h0.08
		c0.296-1.992,0.712-3.984,1.2-6.128l2.032-8.128h4.544l-5.752,18.312h-4.288l-2.176-7.448c-0.56-1.912-0.976-3.648-1.392-5.864
		h-0.08c-0.376,2.256-0.856,4.064-1.392,5.864l-2.328,7.448h-4.328l-5.416-18.312H244.384z"/>
	<path style="fill:#25B6D2;" d="M273.152,71.244l1.912,8.312c0.416,1.952,0.832,3.944,1.168,5.936h0.08
		c0.376-1.992,0.976-4.024,1.504-5.896l2.368-8.352h3.76l2.296,8.128c0.56,2.144,1.048,4.136,1.464,6.128h0.08
		c0.296-1.992,0.712-3.984,1.2-6.128l2.032-8.128h4.544l-5.752,18.312h-4.288l-2.176-7.448c-0.56-1.912-0.976-3.648-1.392-5.864
		h-0.08c-0.376,2.256-0.856,4.064-1.392,5.864l-2.328,7.448h-4.328l-5.416-18.312H273.152z"/>
	<path style="fill:#25B6D2;" d="M296.304,87.004c0-1.736,1.2-2.968,2.856-2.968c1.696,0,2.856,1.2,2.856,2.968
		c0,1.688-1.128,2.968-2.856,2.968C297.48,89.972,296.304,88.692,296.304,87.004z"/>
</g>
<path d="M436.568,91.556c-7.8,0-14.144-6.344-14.144-14.144s6.344-14.144,14.144-14.144s14.144,6.344,14.144,14.144
	S444.36,91.556,436.568,91.556z M436.568,67.276c-5.592,0-10.144,4.544-10.144,10.144s4.544,10.144,10.144,10.144
	s10.144-4.544,10.144-10.144S442.16,67.276,436.568,67.276z"/>
<rect x="442.792" y="87.534" transform="matrix(-0.7071 -0.7071 0.7071 -0.7071 702.6824 470.1288)" width="11.832" height="4"/>
<rect y="459.564" width="512" height="12.768"/>
<polygon points="342.688,464.22 169.312,464.22 193.312,445.972 318.688,445.972 "/>
<g>
	<rect x="281.36" y="166.108" style="fill:#25B6D2;" width="138.664" height="42.664"/>
	<rect x="281.36" y="230.108" style="fill:#25B6D2;" width="138.664" height="42.664"/>
	<rect x="281.36" y="294.108" style="fill:#25B6D2;" width="138.664" height="42.664"/>
	<rect x="281.36" y="358.108" style="fill:#25B6D2;" width="138.664" height="42.664"/>
</g>
<g>
	<rect x="92.008" y="326.108" style="fill:#C9C9C9;" width="149.336" height="10.664"/>
	<rect x="92.008" y="358.108" style="fill:#C9C9C9;" width="149.336" height="10.664"/>
	<rect x="92.008" y="390.108" style="fill:#C9C9C9;" width="149.336" height="10.664"/>
</g>
<path style="fill:#E04F5F;" d="M230.672,294.108h-128c-5.864,0-10.664-4.8-10.664-10.664V176.772c0-5.864,4.8-10.664,10.664-10.664
	h128c5.864,0,10.664,4.8,10.664,10.664v106.664C241.336,289.308,236.536,294.108,230.672,294.108z"/>
<polygon style="fill:#FFFFFF;" points="149.288,200.94 195.368,230.108 149.288,259.268 "/>
<g>
</g>
<g>
</g>
<g>
</g>
<g>
</g>
<g>
</g>
<g>
</g>
<g>
</g>
<g>
</g>
<g>
</g>
<g>
</g>
<g>
</g>
<g>
</g>
<g>
</g>
<g>
</g>
<g>
</g>
</svg>
