<svg xmlns="http://www.w3.org/2000/svg" enable-background="new 0 0 823 823" viewBox="0 0 823 823"><switch><g><path fill="#cce9ff" d="M136.5,630.3c41.1,87.8,137.6,128.2,231.2,83.5c51.2-24.4,90.9-75,142.9-97.9
			c58.4-25.8,123.5-46.3,169.6-99.9c49.1-57.1,69.3-142.5,53.6-215.7c-19.2-89.1-99-109.8-166.5-146C290.4,5.9-16.9,113,116,528.9
			C127.1,563.7,122.9,601.2,136.5,630.3z"/><path fill="#f7f7f7" d="M617.2,247l-40.9,5.8l-11.7,35.1l11.7,11.7l35.1-11.7L617.2,247z M617.2,247"/><path fill="#d3d3d3" d="M567.5,296.7c-1.6-1.6-1.6-4.2,0-5.8l17.5-17.5c1.6-1.6,4.2-1.6,5.8,0c1.6,1.6,1.6,4.2,0,5.8l-17.5,17.5
			C571.7,298.3,569.1,298.3,567.5,296.7L567.5,296.7z M567.5,296.7"/><path fill="#d3d3d3" d="M596.7,279.2c-3.2,3.2-8.5,3.2-11.7,0c-3.2-3.2-3.2-8.5,0-11.7c3.2-3.2,8.5-3.2,11.7,0
			C599.9,270.7,599.9,275.9,596.7,279.2L596.7,279.2z M596.7,279.2"/><path fill="#ffbe55" d="M541.2,299.6l0,5.8l17.5,17.5l5.8,0l11.7-23.4l-11.7-11.7L541.2,299.6z M541.2,299.6"/><path fill="#0e538c" d="M499.6,255l3.6,6.6l23.4,5.8l5.4-5.8l-4.8-17.9l2.5-12.1l-16.2-3.3l-2.5,12.1L499.6,255z M499.6,255"/><path fill="#2a94f4" d="M513.5,228.3l16.2,3.3l3.3-16.2l-15.4-7.4L513.5,228.3z M513.5,228.3"/><path fill="#0b4870" d="M489.1,387.9c-8.9-1.8-14.7-10.6-12.9-19.5L499.6,255l32.4,6.7L508.7,375C506.8,384,498.1,389.7,489.1,387.9
			L489.1,387.9z M489.1,387.9"/><path fill="#ffbe55" d="M541.2,299.6l23.4,23.4l-58.4,58.4c-6.5,6.5-16.9,6.5-23.4,0c-6.5-6.5-6.5-16.9,0-23.4L541.2,299.6z
			 M541.2,299.6"/><path fill="#0e538c" d="M570,335.8l22.4-5.5l8,32.1l-22.4,5.5L570,335.8z M570,335.8"/><path fill="#f7f7f7" d="M664.5,329.4l-33.3-12c-5.7-2-11.9-2.4-17.7-0.9c-4.6,1.1-8.9,3.3-12.5,6.4l-8.6,7.3l7.9,32.1l11,2.5
			c4.6,1,9.5,1,14.1-0.2c5.9-1.5,11.2-4.6,15.3-9.1L664.5,329.4z M664.5,329.4"/><path fill="#d3d3d3" d="M653,342l-13.3-8.4c-8.2-5-18.5-4.9-26.6,0.3c-1.9,1.2-2.5,3.8-1.3,5.7c0.2,0.3,0.4,0.5,0.6,0.7
			c1.4,1.4,3.5,1.6,5.1,0.6c5.4-3.5,12.3-3.6,17.8-0.2l12,7.6L653,342z M653,342"/><path fill="#2a94f4" d="M572.3,335.2l8,32.1L496,388.2c-8.9,2.2-17.8-3.2-20-12.1c-2.2-8.9,3.2-17.8,12.1-20L572.3,335.2z
			 M572.3,335.2"/><path fill="#ffbe55" d="M325.2,286.3l-44.5,25.4l-44.5-25.4l44.5-25.3L325.2,286.3z M325.2,286.3"/><path fill="#2a94f4" d="M280.7,311.7l-27.6-15.8l-16.9,9.6l44.5,25.4l44.5-25.4l-16.9-9.6L280.7,311.7z M280.7,311.7"/><path fill="#0e538c" d="M280.7,330.9l-27.6-15.8l-16.9,9.6l44.5,25.4l44.5-25.4l-16.9-9.6L280.7,330.9z M280.7,330.9"/><path fill="#d3d3d3" d="M447.2,520.6H338.8c-5.1,0-9.2-4.1-9.2-9.2l0,0c0-5.1,4.1-9.2,9.2-9.2h108.4c5.1,0,9.2,4.1,9.2,9.2l0,0
				C456.4,516.6,452.3,520.6,447.2,520.6z"/><rect width="9.2" height="93.3" x="412.6" y="584.9" fill="#0e538c" transform="rotate(-90 417.184 631.577)"/><path fill="#0e538c" d="M379.2,634.3c0.8,4.8-2.4,9.3-7.2,10.1c-4.8,0.8-9.3-2.4-10.1-7.2c-0.8-4.8,2.4-9.3,7.2-10.1
					C373.9,626.3,378.4,629.5,379.2,634.3z"/><rect width="9.2" height="116.1" x="412.1" y="514.6" fill="#0e538c"/><path fill="#0e538c" d="M472.5,634.3c0.8,4.8-2.4,9.3-7.2,10.1c-4.8,0.8-9.3-2.4-10.1-7.2c-0.8-4.8,2.4-9.3,7.2-10.1
					C467.2,626.3,471.7,629.5,472.5,634.3z"/><path fill="#d3d3d3" d="M475.7,520.6H373.2c-7,0-12-6.8-10-13.7l48.9-168.6c1.3-4.5,5.4-7.6,10-7.6h102.4c7,0,12,6.8,10,13.7
				L485.7,513C484.4,517.5,480.3,520.6,475.7,520.6z"/><path fill="#f2f2f2" d="M461.6,520.6h-89.2c-7,0-12-6.8-10-13.7l48.9-168.6c1.3-4.5,5.4-7.6,10-7.6h89.2c7,0,12,6.8,10,13.7
				L471.6,513C470.3,517.5,466.2,520.6,461.6,520.6z"/><path fill="#d3d3d3" d="M475.6,520.6H367.2c-5.1,0-9.2-4.1-9.2-9.2l0,0c0-5.1,4.1-9.2,9.2-9.2h108.4c5.1,0,9.2,4.1,9.2,9.2l0,0
				C484.8,516.6,480.7,520.6,475.6,520.6z"/><polygon fill="#ffe3ca" points="387.9 377.5 365.7 441.4 370.9 454 400.8 448.3 409.3 379.9"/><path fill="#2a94f4" d="M401.3,346.4c0,0-17.5,9.9-21.4,42.7l23.2,13.8L401.3,346.4z"/><path fill="#2a94f4" d="M431.3,333.8l-30,12.6l-23.6,105.2l79.1,31.2l42.1-120c0,0-6.9-25.1-46.4-31.4L431.3,333.8z"/><path fill="#ffe3ca" d="M511.2,457.4c-0.1-1.4-0.9-9.7-1.2-11l-13-83.4c-2.5-11.4-15.4-17.2-25.6-11.5c-7.5,4.2-10.9,13.2-8,21.2
			l15.5,71.6L511.2,457.4z"/><path fill="#ffe3ca" d="M493.5,439.5l-88.2-6.9l-4.4,15.7l84.9,28.7c13.1,4.4,26.4-5.9,25.4-19.6l0,0
			C510.5,447.9,503,440.3,493.5,439.5z"/><path fill="#2a94f4" d="M488.1,348.9c0,0,11.3,4.9,16.1,34l-39.7,12.2c0,0-26-29.1,1.8-48.5L488.1,348.9z"/><path fill="#ffe3ca" d="M377.6,449.2c3.2,8.7,19.6,9,28.2,5.8c8.7-3.2,17.6-8.2,14.3-16.9c-3.2-8.7-17.7-13.8-27.1-11.7
			C381.5,429.1,374.3,440.6,377.6,449.2z"/><path fill="#ffbe55" d="M425.6,461l-63-8.1l0.9-7.1l63,8.1c2,0.3,3.3,2,3.1,4l0,0C429.3,459.9,427.5,461.3,425.6,461z"/><path fill="#ffbe55" d="M370.9,454l-83.4-10.7c-4.8-0.6-8.6-4.4-9.3-9.2l-8.8-60.5c-0.8-5.4,3.8-10,9.1-9.3l76.6,9.8
			c3.2,0.4,5.7,2.9,6.1,6.1L370.9,454z"/><path fill="#fff" d="M324.6,412.4c-0.6,4.4-4.5,7.4-8.9,6.9c-4.4-0.6-7.4-4.5-6.9-8.9c0.6-4.4,4.5-7.4,8.9-6.9
			C322.1,404.1,325.2,408.1,324.6,412.4z"/><path fill="#ffbe55" d="M271.2,613.8l-21.7,9l-13.7,1c-6.3,0.5-11.5,5-12.9,11.2l-0.6,2.9l74.2,9.3l1.5-29.9L271.2,613.8z"/><polygon fill="#ffe3ca" points="298.1 617.3 305.4 584.7 278.5 581.1 271.2 613.8"/><path fill="#0b4870" d="M456.7,482.8c0,0-2.1,18-34.4,20.4h-77.6l-36.6,102.1l-38.5-6.2l38.5-149.9l88.2,9.8L456.7,482.8z"/><path fill="#ffbe55" d="M209,555.2l-23.2-3.4l-12.3-6.2c-5.6-2.8-12.5-1.6-16.8,3l-2,2.2l58.9,46.1l16.6-24.9L209,555.2z"/><polygon fill="#ffe3ca" points="230.4 572 250.6 546.3 229.4 529.3 209 555.2"/><path fill="#0b4870" d="M377.7,451.6l-59.8-17.9c-2.5-0.8-5-1.6-7.4-2.6c-5.2-2-18.2-4.7-28.3,10.7c-13,19.8-64.8,94.6-64.8,94.6
			l31.6,23.3l69-88c5.8-8,15.1-12.7,24.9-12.7l53.4-0.1L377.7,451.6z"/><path fill="#ffbe55" d="M454.6,301c1.1-2,19.6-35,2.6-43.3c0,0-2.2-17.4-21.7-15.5c-19.5,1.9-14.2,7.6-26.6,4.8
			c-12.4-2.8-24.1,3.6-23.2,13.9c0.9,10.4,8.9,14.8,23.2,12.3c14.3-2.5,25.6-0.6,25.6-0.6l11.9,3.5L454.6,301z"/><g><path fill="#ffe3ca" d="M457,336.7l-1.5-41.9l-29.1,10.3l2.3,33.6c0.5,7.8,4.9,13.9,12.7,13.3l2.4-0.2
					C451.6,351.3,457.5,344.6,457,336.7z"/><path fill="#fcd2b1" d="M453,300.6c0,0,5.5,35-24.4,37l-1.3-16.6L453,300.6z"/></g><path fill="#ffe3ca" d="M428.3,329.8l1,0c14.9-0.7,26.4-13.3,25.7-28.2l-1.4-30.4c-0.2-3.9-3.5-6.8-7.3-6.7l-35.5,1.7
			c-6.9,0.3-12.2,6.2-11.9,13.1l1.2,25C400.8,319,413.4,330.5,428.3,329.8z"/><path fill="#ffe3ca" d="M448.3,292.4c0.2,5,4.5,8.9,9.5,8.7c5-0.2,8.9-4.5,8.7-9.5c-0.2-5-4.5-8.9-9.5-8.7
			C451.9,283.1,448,287.3,448.3,292.4z"/><path fill="#ffbe55" d="M443.9,268l1.8,34c0.2,3.1-1.1,6.2-3.6,7.9c-1.6,1.1-2.9,2.6-5.7,2.2c-8.1-1.2-4.4-7.2-20.8-6.3
			c-15,0.8-13.9,9.2-13.9,9.2s2.9,15.9,23.5,16.6c20.6,0.8,30.9-12.3,28.5-29.6l-2-35.9L443.9,268z"/><path fill="#ffbe55" d="M399.9,273.7c0,0,9.6,1.5,23.5-1.9c13.9-3.4,24.9,7.8,24.9,7.8s3,5.2,3.7,5c0.7-0.1,5-1.8,5-1.8l-0.2-15.7
			l-10.2-7.9l-28.2-1.2l-16.7,3.7L399.9,273.7z"/><g><path fill="#ffbe55" d="M407.2 199.5l.7 1.5-14.9 6.8-.7-1.6c-2.9-6.3-8.4-11.5-15-14.3-5.7-2.4-9.7-7-11.5-12.8-2.5-8.8 1.6-20 11.8-24.7 10.7-4.9 23.1-.4 27.8 9.7 2.1 4.6 2.4 9.9.6 14.8C403.6 185.6 404.1 192.8 407.2 199.5zM411.4 208.4c.8 1.7 0 3.7-1.8 4.5l-8.6 3.9c-1.8.8-3.8.1-4.6-1.7l-1.8-3.9 14.9-6.8L411.4 208.4 411.4 208.4z"/><rect width="3.9" height="9" x="369.8" y="137.4" fill="#ffbe55" transform="rotate(-24.522 371.765 141.906)"/><path fill="#ffbe55" d="M398.4,143.9l3.6,1.3l3.4-8.5l-3.6-1.3L398.4,143.9z M398.4,143.9"/><rect width="9.4" height="3.8" x="418.9" y="158.2" fill="#ffbe55" transform="rotate(-24.522 423.624 160.144)"/><rect width="9.4" height="3.8" x="346.8" y="191.1" fill="#ffbe55" transform="rotate(-24.522 351.555 193.015)"/><path fill="#ffbe55" d="M347.2,160.3l-1.4,3.6l8.6,3l1.3-3.6L347.2,160.3z M347.2,160.3"/></g><path fill="#0e538c" d="M270.1,235.1L266,231c-0.7-0.7-1.6-1.1-2.6-1.1c-1,0-1.9,0.4-2.6,1.1l-0.6,0.6c-5.4-3.6-11.8-5.5-18.4-5.6
			h-0.1c-4.1,0-8.1,0.7-11.8,2.2l7.2-7.2c0.9,0.4,1.9,0.7,2.9,0.7c1.8,0,3.6-0.7,4.8-2c1.3-1.3,2-3,2-4.8c0-1.8-0.7-3.6-2-4.8
			c-1.3-1.3-3-2-4.8-2c-1.8,0-3.6,0.7-4.8,2c-1.3,1.3-2,3-2,4.8c0,1,0.2,2,0.7,2.9l-13,13l-0.4-0.4c-0.7-0.7-1.6-1.1-2.6-1.1
			c-1,0-1.9,0.4-2.6,1.1l-4.2,4.1c-0.7,0.7-1.1,1.6-1.1,2.6c0,1,0.4,1.9,1.1,2.6l0.4,0.4l-13,13c-0.9-0.4-1.9-0.7-2.9-0.7
			c-1.8,0-3.6,0.7-4.8,2c-2.7,2.7-2.7,7,0,9.7c1.3,1.3,3,2,4.8,2c1.8,0,3.6-0.7,4.8-2c2.1-2.1,2.6-5.3,1.3-7.8l7.2-7.2
			c-1.4,3.8-2.2,7.8-2.2,11.9c0,6.6,1.9,12.9,5.6,18.4l-0.7,0.7c-1.4,1.4-1.4,3.8,0,5.2l4.1,4.1c0.7,0.7,1.6,1.1,2.6,1.1
			c1,0,1.9-0.4,2.6-1.1l4.1-4.1c1.4-1.4,1.4-3.8,0-5.2l-4.1-4.1c-0.7-0.7-1.6-1.1-2.6-1.1c-1,0-1.9,0.4-2.6,1.1l-0.1,0.1
			c-5.9-9.6-5.7-22.1,0.8-31.5c0.4,0.2,0.9,0.3,1.3,0.3c1,0,1.9-0.4,2.6-1.1l4.1-4.1c1.1-1.1,1.3-2.6,0.8-3.9
			c9.4-6.5,21.9-6.8,31.5-0.8l-0.3,0.3c-1.4,1.4-1.4,3.8,0,5.2l4.1,4.1c0.7,0.7,1.6,1.1,2.6,1.1c1,0,1.9-0.4,2.6-1.1l4.1-4.1
			C271.5,238.9,271.5,236.6,270.1,235.1L270.1,235.1z M221.3,282.7l-2.9,2.9l-2.9-2.9l2.9-2.9L221.3,282.7z M238.4,213.1
			c0.4-0.4,1-0.7,1.6-0.7c0.6,0,1.2,0.2,1.6,0.7c0.4,0.4,0.7,1,0.7,1.6c0,0.6-0.2,1.2-0.7,1.6c-0.4,0.4-1,0.7-1.6,0.7
			c-0.6,0-1.2-0.2-1.6-0.7c-0.4-0.4-0.7-1-0.7-1.6C237.8,214.1,238,213.6,238.4,213.1L238.4,213.1z M197.2,260.8
			c-0.4,0.4-1,0.7-1.6,0.7s-1.2-0.2-1.6-0.7c-0.9-0.9-0.9-2.3,0-3.2c0.4-0.4,1-0.7,1.6-0.7s1.2,0.2,1.6,0.7
			C198.1,258.5,198.1,260,197.2,260.8L197.2,260.8z M217.8,239.9l-2.9-2.9l2.9-2.9l2.9,2.9L217.8,239.9z M263.3,240.6l-2.9-2.9
			l2.9-2.9l2.9,2.9L263.3,240.6z M263.3,240.6"/></g></switch></svg>