<?xml version="1.0" encoding="iso-8859-1"?>
<!-- Generator: Adobe Illustrator 19.0.0, SVG Export Plug-In . SVG Version: 6.00 Build 0)  -->
<svg version="1.1" id="Layer_1" xmlns="http://www.w3.org/2000/svg" xmlns:xlink="http://www.w3.org/1999/xlink" x="0px" y="0px"
	 viewBox="0 0 512 512" style="enable-background:new 0 0 512 512;" xml:space="preserve">
<path style="fill:#415E72;" d="M0,355.2v-324c0.104-5.704,4.696-10.296,10.4-10.4h491.2c5.704,0.104,10.296,4.696,10.4,10.4v324H0z"
	/>
<g>
	<path style="fill:#CFDCE5;" d="M512,355.2v41.6c-0.104,5.704-4.696,10.296-10.4,10.4H10.4c-5.704-0.104-10.296-4.696-10.4-10.4
		v-41.6H512z"/>
	<rect x="146.4" y="480.8" style="fill:#CFDCE5;" width="219.2" height="10.4"/>
</g>
<polygon style="fill:#AAC1CE;" points="328.8,480.8 183.2,480.8 193.6,407.2 318.4,407.2 "/>
<rect x="20.8" y="41.6" style="fill:#FFFFFF;" width="470.4" height="292.8"/>
<polygon style="fill:#8BA0AE;" points="318.4,407.2 193.6,407.2 187.792,448.28 320.272,420.424 "/>
<rect x="334.648" y="132.464" style="fill:#25B6D2;" width="29.656" height="8"/>
<rect x="260.504" y="132.464" style="fill:#AAC1CE;" width="29.656" height="8"/>
<g>
	<rect x="143.84" y="132.464" style="fill:#E04F5F;" width="55.76" height="8"/>
	<rect x="355.68" y="232.32" style="fill:#E04F5F;" width="29.664" height="8"/>
</g>
<rect x="281.52" y="232.32" style="fill:#25B6D2;" width="29.656" height="8"/>
<rect x="148.056" y="232.32" style="fill:#E04F5F;" width="88.976" height="8"/>
<rect x="311.184" y="165.744" style="fill:#415E72;" width="74.152" height="8"/>
<rect x="251.856" y="165.744" style="fill:#E04F5F;" width="29.672" height="8"/>
<rect x="156.264" y="165.744" style="fill:#AAC1CE;" width="65.936" height="8"/>
<rect x="326.016" y="199.04" style="fill:#25B6D2;" width="59.32" height="8"/>
<rect x="266.72" y="199.04" style="fill:#AAC1CE;" width="29.664" height="8"/>
<g>
	<rect x="136.24" y="199.04" style="fill:#415E72;" width="71.136" height="8"/>
	<path style="fill:#415E72;" d="M129.416,86.848l19.312-9.952v2.872l-16.272,8.16V88l16.272,8.16v2.872l-19.312-9.944V86.848z"/>
	<path style="fill:#415E72;" d="M154.504,69.488h3.664v12.568h0.08c0.624-1.08,1.528-1.976,2.624-2.576
		c1.136-0.672,2.432-1.024,3.752-1.04c2.704,0,7.032,1.664,7.032,8.608v12H168V87.472c0-3.248-1.2-5.992-4.656-5.992
		c-2.248,0.04-4.224,1.512-4.912,3.656c-0.2,0.56-0.288,1.16-0.248,1.752v12.16h-3.664L154.504,69.488z"/>
	<path style="fill:#415E72;" d="M181.84,73.112v5.784h5.24v2.792h-5.24v10.864c0,2.504,0.704,3.912,2.744,3.912
		c0.72,0.008,1.432-0.072,2.128-0.248l0.168,2.744c-1.04,0.368-2.136,0.544-3.24,0.504c-1.48,0.088-2.92-0.472-3.952-1.536
		c-1.12-1.504-1.624-3.376-1.416-5.24v-11h-3.128v-2.792h3.128v-4.8L181.84,73.112z"/>
	<path style="fill:#415E72;" d="M191.2,84.352c0-2.08,0-3.792-0.168-5.456h3.2l0.168,3.248h0.128
		c1.232-2.336,3.688-3.776,6.328-3.704c2.56-0.032,4.864,1.576,5.704,4h0.088c0.56-1.016,1.32-1.904,2.24-2.616
		c1.28-0.976,2.856-1.48,4.464-1.416c2.664,0,6.616,1.744,6.616,8.736v11.864h-3.584V87.64c0-3.864-1.416-6.2-4.368-6.2
		c-2,0.088-3.736,1.416-4.328,3.328c-0.192,0.592-0.288,1.208-0.288,1.832v12.448h-3.584V86.976c0-3.2-1.416-5.536-4.2-5.536
		c-2.136,0.128-3.96,1.6-4.536,3.664c-0.2,0.576-0.296,1.184-0.288,1.792v12.16H191.2V84.352z"/>
	<path style="fill:#415E72;" d="M225.904,69.488h3.696V99.04h-3.664L225.904,69.488z"/>
	<path style="fill:#415E72;" d="M254.752,89.136l-19.312,9.912v-2.872L251.832,88v-0.088l-16.4-8.16v-2.856l19.312,9.912
		L254.752,89.136z"/>
	<path style="fill:#415E72;" d="M129.416,291.512l19.312-9.952v2.872l-16.272,8.16v0.088l16.272,8.16v2.872l-19.312-9.952V291.512z"
		/>
	<path style="fill:#415E72;" d="M151.424,305.376l11.608-30.176h2.832l-11.656,30.176H151.424z"/>
	<path style="fill:#415E72;" d="M168.8,274.152h3.664v12.568h0.08c0.624-1.08,1.528-1.976,2.624-2.576
		c1.136-0.672,2.432-1.024,3.752-1.04c2.704,0,7.032,1.664,7.032,8.616v12h-3.664v-11.584c0-3.248-1.2-5.992-4.656-5.992
		c-2.248,0.04-4.224,1.512-4.912,3.656c-0.2,0.56-0.288,1.16-0.248,1.752v12.16H168.8V274.152z"/>
	<path style="fill:#415E72;" d="M196.12,277.776v5.784h5.24v2.792h-5.24v10.864c0,2.496,0.704,3.912,2.744,3.912
		c0.72,0.008,1.432-0.072,2.128-0.248l0.168,2.744c-1.04,0.368-2.136,0.544-3.24,0.504c-1.48,0.088-2.92-0.472-3.952-1.536
		c-1.12-1.504-1.624-3.376-1.416-5.24v-11h-3.128v-2.792h3.128v-4.8L196.12,277.776z"/>
	<path style="fill:#415E72;" d="M205.48,289.016c0-2.08,0-3.792-0.168-5.456h3.2l0.168,3.248h0.12
		c1.232-2.336,3.688-3.776,6.328-3.704c2.56-0.032,4.864,1.576,5.704,4h0.088c0.56-1.016,1.32-1.904,2.24-2.616
		c1.28-0.976,2.856-1.48,4.464-1.416c2.664,0,6.616,1.744,6.616,8.736v11.864h-3.584v-11.368c0-3.864-1.416-6.2-4.368-6.2
		c-2,0.088-3.736,1.416-4.328,3.328c-0.192,0.592-0.288,1.208-0.288,1.832v12.448h-3.584V291.64c0-3.2-1.416-5.536-4.2-5.536
		c-2.136,0.128-3.96,1.6-4.536,3.664c-0.2,0.576-0.296,1.184-0.288,1.792v12.16h-3.576L205.48,289.016z"/>
	<path style="fill:#415E72;" d="M240.176,274.152h3.664v29.552h-3.664V274.152z"/>
	<path style="fill:#415E72;" d="M269.024,293.8l-19.312,9.904V300.8l16.4-8.16v-0.088l-16.4-8.16v-2.872l19.312,9.912L269.024,293.8
		z"/>
</g>
<g>
</g>
<g>
</g>
<g>
</g>
<g>
</g>
<g>
</g>
<g>
</g>
<g>
</g>
<g>
</g>
<g>
</g>
<g>
</g>
<g>
</g>
<g>
</g>
<g>
</g>
<g>
</g>
<g>
</g>
</svg>
